<?xml version="1.0" encoding="UTF-8"?>
<svg width="21px" height="20px" viewBox="0 0 21 20" version="1.1" xmlns="http://www.w3.org/2000/svg" xmlns:xlink="http://www.w3.org/1999/xlink">
    <!-- Generator: Sketch 54.1 (76490) - https://sketchapp.com -->
    <title></title>
    <desc>Created with Sketch.</desc>
    <g id="Elegibilidade" stroke="none" stroke-width="1" fill="none" fill-rule="evenodd">
        <g id="004---Metas-configurado-check" transform="translate(-1211.000000, -35.000000)" fill="#FFFFFF">
            <g id="Group-10">
                <g id="Group-4" transform="translate(605.000000, 19.000000)">
                    <path d="M610.09375,26.21875 C610.171875,26.0937494 610.281249,26.0195314 610.421875,25.9960938 C610.562501,25.9726561 610.687499,25.9999996 610.796875,26.078125 L616,29.546875 L616,16.4921875 C616,16.3515618 616.050781,16.2343755 616.152344,16.140625 C616.253907,16.0468745 616.374999,16 616.515625,16 C616.640626,16 616.753906,16.0468745 616.855469,16.140625 C616.957032,16.2343755 617.007812,16.3515618 617.007812,16.4921875 L617.007812,29.546875 L622.234375,26.078125 C622.343751,25.9999996 622.464843,25.9726561 622.597656,25.9960938 C622.730469,26.0195314 622.835937,26.0937494 622.914062,26.21875 C622.992188,26.3281255 623.019531,26.4492181 622.996094,26.5820312 C622.972656,26.7148444 622.906251,26.8203121 622.796875,26.8984375 L616.796875,30.90625 C616.78125,30.90625 616.773438,30.9101562 616.773438,30.9179688 C616.773438,30.9257813 616.765625,30.9296875 616.75,30.9296875 L616.726562,30.9296875 L616.726562,30.953125 L616.65625,30.953125 L616.65625,30.9765625 L616.5625,30.9765625 L616.5625,31 L616.457031,31 C616.449219,31 616.445312,30.9921876 616.445312,30.9765625 L616.363281,30.9765625 C616.355469,30.9765625 616.351562,30.9687501 616.351562,30.953125 L616.304688,30.953125 L616.304688,30.9296875 L616.257812,30.9296875 C616.257812,30.9140624 616.253906,30.90625 616.246094,30.90625 L616.234375,30.90625 L610.234375,26.8984375 C610.109374,26.8203121 610.035156,26.7148444 610.011719,26.5820312 C609.988281,26.4492181 610.015625,26.3281255 610.09375,26.21875 Z M625.46875,31 C625.609376,30.9843749 625.734374,31.0273432 625.84375,31.1289063 C625.953126,31.2304693 626.007812,31.3515618 626.007812,31.4921875 L626.007812,34.984375 C626.007812,35.2656264 625.910157,35.5039053 625.714844,35.6992188 C625.51953,35.8945322 625.281251,35.9921875 625,35.9921875 L608.007812,35.9921875 C607.726561,35.9921875 607.488282,35.8945322 607.292969,35.6992188 C607.097655,35.5039053 607,35.2656264 607,34.984375 L607,31.4921875 C607,31.3515618 607.054687,31.2304693 607.164062,31.1289063 C607.273438,31.0273432 607.406249,30.9843749 607.5625,31 C607.687501,31.0156251 607.792968,31.070312 607.878906,31.1640625 C607.964844,31.257813 608.007812,31.3749993 608.007812,31.515625 L608.007812,34.984375 L625,34.984375 L625,31.515625 C625,31.3749993 625.042968,31.257813 625.128906,31.1640625 C625.214844,31.070312 625.328124,31.0156251 625.46875,31 Z" id="" transform="translate(616.503906, 25.996094) rotate(-270.000000) translate(-616.503906, -25.996094) "></path>
                </g>
            </g>
        </g>
    </g>
</svg>